<?xml version="1.0" standalone="no"?><svg xmlns="http://www.w3.org/2000/svg" viewBox="0 0 1440 320"><path fill="#1565C0" fill-opacity="0.5" d="M0,256L30,213.3C60,171,120,85,180,80C240,75,300,149,360,197.3C420,245,480,267,540,234.7C600,203,660,117,720,80C780,43,840,53,900,69.3C960,85,1020,107,1080,138.7C1140,171,1200,213,1260,197.3C1320,181,1380,107,1410,69.3L1440,32L1440,320L1410,320C1380,320,1320,320,1260,320C1200,320,1140,320,1080,320C1020,320,960,320,900,320C840,320,780,320,720,320C660,320,600,320,540,320C480,320,420,320,360,320C300,320,240,320,180,320C120,320,60,320,30,320L0,320Z"></path></svg>