<?xml version="1.0" encoding="UTF-8"?>
<svg xmlns="http://www.w3.org/2000/svg" xmlns:xlink="http://www.w3.org/1999/xlink" viewBox="0 0 30 30" width="30px" height="30px">
<g id="surface17678957">
<path style=" stroke:none;fill-rule:nonzero;fill:rgb(92.941177%,47.843137%,43.529412%);fill-opacity:1;" d="M 15 29.0625 C 7.238281 29.0625 0.9375 22.761719 0.9375 15 C 0.9375 7.238281 7.238281 0.9375 15 0.9375 C 22.761719 0.9375 29.0625 7.238281 29.0625 15 C 29.0625 22.761719 22.761719 29.0625 15 29.0625 Z M 15 29.0625 "/>
<path style=" stroke:none;fill-rule:nonzero;fill:rgb(30.588236%,47.843137%,70.980394%);fill-opacity:1;" d="M 15 1.125 C 22.648438 1.125 28.875 7.351562 28.875 15 C 28.875 22.648438 22.648438 28.875 15 28.875 C 7.351562 28.875 1.125 22.648438 1.125 15 C 1.125 7.351562 7.351562 1.125 15 1.125 M 15 0.75 C 7.125 0.75 0.75 7.125 0.75 15 C 0.75 22.875 7.125 29.25 15 29.25 C 22.875 29.25 29.25 22.875 29.25 15 C 29.25 7.125 22.875 0.75 15 0.75 Z M 15 0.75 "/>
<path style=" stroke:none;fill-rule:nonzero;fill:rgb(100%,100%,100%);fill-opacity:1;" d="M 15 26.8125 C 8.476562 26.8125 3.1875 21.523438 3.1875 15 C 3.1875 8.476562 8.476562 3.1875 15 3.1875 C 21.523438 3.1875 26.8125 8.476562 26.8125 15 C 26.8125 21.523438 21.523438 26.8125 15 26.8125 Z M 15 26.8125 "/>
<path style=" stroke:none;fill-rule:nonzero;fill:rgb(30.588236%,47.843137%,70.980394%);fill-opacity:1;" d="M 15 3.375 C 21.414062 3.375 26.625 8.585938 26.625 15 C 26.625 21.414062 21.414062 26.625 15 26.625 C 8.585938 26.625 3.375 21.414062 3.375 15 C 3.375 8.585938 8.585938 3.375 15 3.375 M 15 3 C 8.363281 3 3 8.363281 3 15 C 3 21.636719 8.363281 27 15 27 C 21.636719 27 27 21.636719 27 15 C 27 8.363281 21.636719 3 15 3 Z M 15 3 "/>
<path style=" stroke:none;fill-rule:nonzero;fill:rgb(40.000001%,47.450981%,56.078434%);fill-opacity:1;" d="M 18.261719 20.511719 C 18.148438 20.511719 18 20.4375 17.960938 20.324219 L 14.585938 15 L 19.199219 7.050781 C 19.3125 6.863281 19.539062 6.824219 19.726562 6.898438 C 19.914062 7.011719 19.949219 7.238281 19.875 7.425781 L 15.449219 15 L 18.601562 19.949219 C 18.710938 20.136719 18.675781 20.363281 18.488281 20.476562 C 18.414062 20.476562 18.335938 20.511719 18.261719 20.511719 Z M 18.261719 20.511719 "/>
<path style=" stroke:none;fill-rule:nonzero;fill:rgb(40.000001%,47.450981%,56.078434%);fill-opacity:1;" d="M 15 13.875 C 14.378906 13.875 13.875 14.378906 13.875 15 C 13.875 15.621094 14.378906 16.125 15 16.125 C 15.621094 16.125 16.125 15.621094 16.125 15 C 16.125 14.378906 15.621094 13.875 15 13.875 Z M 15 13.875 "/>
<path style=" stroke:none;fill-rule:nonzero;fill:rgb(77.254903%,83.137256%,87.058824%);fill-opacity:1;" d="M 15 4.125 C 14.585938 4.125 14.25 4.460938 14.25 4.875 C 14.25 5.289062 14.585938 5.625 15 5.625 C 15.414062 5.625 15.75 5.289062 15.75 4.875 C 15.75 4.460938 15.414062 4.125 15 4.125 Z M 15 4.125 "/>
<path style=" stroke:none;fill-rule:nonzero;fill:rgb(77.254903%,83.137256%,87.058824%);fill-opacity:1;" d="M 9.746094 5.902344 C 9.566406 6.003906 9.503906 6.234375 9.609375 6.414062 C 9.710938 6.59375 9.941406 6.652344 10.121094 6.550781 C 10.300781 6.445312 10.363281 6.21875 10.257812 6.039062 C 10.15625 5.859375 9.925781 5.796875 9.746094 5.902344 Z M 9.746094 5.902344 "/>
<path style=" stroke:none;fill-rule:nonzero;fill:rgb(77.254903%,83.137256%,87.058824%);fill-opacity:1;" d="M 15 24.375 C 14.585938 24.375 14.25 24.710938 14.25 25.125 C 14.25 25.539062 14.585938 25.875 15 25.875 C 15.414062 25.875 15.75 25.539062 15.75 25.125 C 15.75 24.710938 15.414062 24.375 15 24.375 Z M 15 24.375 "/>
<path style=" stroke:none;fill-rule:nonzero;fill:rgb(77.254903%,83.137256%,87.058824%);fill-opacity:1;" d="M 19.878906 23.449219 C 19.699219 23.550781 19.636719 23.78125 19.742188 23.960938 C 19.84375 24.140625 20.074219 24.203125 20.253906 24.097656 C 20.433594 23.996094 20.492188 23.765625 20.390625 23.585938 C 20.285156 23.40625 20.058594 23.34375 19.878906 23.449219 Z M 19.878906 23.449219 "/>
<path style=" stroke:none;fill-rule:nonzero;fill:rgb(77.254903%,83.137256%,87.058824%);fill-opacity:1;" d="M 19.730469 6.042969 C 19.628906 6.21875 19.6875 6.449219 19.867188 6.554688 C 20.046875 6.65625 20.277344 6.59375 20.378906 6.417969 C 20.484375 6.238281 20.421875 6.007812 20.242188 5.902344 C 20.0625 5.800781 19.835938 5.863281 19.730469 6.042969 Z M 19.730469 6.042969 "/>
<path style=" stroke:none;fill-rule:nonzero;fill:rgb(77.254903%,83.137256%,87.058824%);fill-opacity:1;" d="M 9.617188 23.585938 C 9.515625 23.761719 9.574219 23.992188 9.753906 24.097656 C 9.933594 24.199219 10.164062 24.136719 10.265625 23.960938 C 10.371094 23.78125 10.308594 23.550781 10.128906 23.445312 C 9.949219 23.34375 9.722656 23.40625 9.617188 23.585938 Z M 9.617188 23.585938 "/>
<path style=" stroke:none;fill-rule:nonzero;fill:rgb(77.254903%,83.137256%,87.058824%);fill-opacity:1;" d="M 6.039062 19.742188 C 5.859375 19.84375 5.796875 20.074219 5.902344 20.253906 C 6.003906 20.433594 6.234375 20.492188 6.414062 20.390625 C 6.59375 20.285156 6.652344 20.058594 6.550781 19.878906 C 6.445312 19.699219 6.21875 19.636719 6.039062 19.742188 Z M 6.039062 19.742188 "/>
<path style=" stroke:none;fill-rule:nonzero;fill:rgb(77.254903%,83.137256%,87.058824%);fill-opacity:1;" d="M 23.585938 9.609375 C 23.40625 9.710938 23.34375 9.941406 23.449219 10.121094 C 23.550781 10.300781 23.78125 10.363281 23.960938 10.257812 C 24.140625 10.15625 24.203125 9.925781 24.097656 9.746094 C 23.996094 9.566406 23.765625 9.503906 23.585938 9.609375 Z M 23.585938 9.609375 "/>
<path style=" stroke:none;fill-rule:nonzero;fill:rgb(77.254903%,83.137256%,87.058824%);fill-opacity:1;" d="M 5.902344 9.753906 C 5.800781 9.933594 5.859375 10.164062 6.039062 10.269531 C 6.21875 10.371094 6.449219 10.308594 6.550781 10.128906 C 6.65625 9.949219 6.59375 9.722656 6.414062 9.617188 C 6.234375 9.515625 6.007812 9.574219 5.902344 9.753906 Z M 5.902344 9.753906 "/>
<path style=" stroke:none;fill-rule:nonzero;fill:rgb(77.254903%,83.137256%,87.058824%);fill-opacity:1;" d="M 23.445312 19.871094 C 23.34375 20.046875 23.402344 20.277344 23.582031 20.382812 C 23.761719 20.484375 23.992188 20.421875 24.09375 20.246094 C 24.199219 20.066406 24.136719 19.835938 23.957031 19.730469 C 23.777344 19.628906 23.550781 19.691406 23.445312 19.871094 Z M 23.445312 19.871094 "/>
<path style=" stroke:none;fill-rule:nonzero;fill:rgb(77.254903%,83.137256%,87.058824%);fill-opacity:1;" d="M 25.125 14.25 C 24.710938 14.25 24.375 14.585938 24.375 15 C 24.375 15.414062 24.710938 15.75 25.125 15.75 C 25.539062 15.75 25.875 15.414062 25.875 15 C 25.875 14.585938 25.539062 14.25 25.125 14.25 Z M 25.125 14.25 "/>
<path style=" stroke:none;fill-rule:nonzero;fill:rgb(77.254903%,83.137256%,87.058824%);fill-opacity:1;" d="M 4.875 14.25 C 4.460938 14.25 4.125 14.585938 4.125 15 C 4.125 15.414062 4.460938 15.75 4.875 15.75 C 5.289062 15.75 5.625 15.414062 5.625 15 C 5.625 14.585938 5.289062 14.25 4.875 14.25 Z M 4.875 14.25 "/>
</g>
</svg>
