<svg id="Layer_2" height="512" viewBox="0 0 64 64" width="512" xmlns="http://www.w3.org/2000/svg" data-name="Layer 2"><path d="m62 8v23.01a9.987 9.987 0 0 1 -9.99 9.99h-6.01v9h2a8 8 0 0 1 8 8v6h-51v-4a8 8 0 0 1 8-8h5c-13.38-.79-16-13-16-13v-2a9 9 0 0 1 9-9h6l28-1h1.5a4.494 4.494 0 0 0 4.5-4.5v-8.5a6 6 0 0 1 6-6z" fill="#d0d2d3"/><path d="m15 28s2.8 15.857 16.9 19.929c0 0 13.1-7.929 15.1-20.929z" fill="#63cfbd"/><path d="m62 20v11.01a9.987 9.987 0 0 1 -9.99 9.99h-6.01v9h2a8 8 0 0 1 8 8v6h-23.41l-.46-21.12a6.016 6.016 0 0 1 5.75-6.13l12.37-.51a6 6 0 0 0 5.75-6v-4.24a6 6 0 0 1 6-6z" fill="#a6a8ab" opacity=".3"/><path d="m17.639 13.414a11.667 11.667 0 0 1 -1.628-6.414 11.622 11.622 0 0 1 2-6 9.739 9.739 0 0 1 6 2 9.481 9.481 0 0 1 2.348 2.676" fill="#e90d39"/><path d="m44.363 13.412a11.667 11.667 0 0 0 1.626-6.412 11.622 11.622 0 0 0 -2-6 9.739 9.739 0 0 0 -6 2 9.481 9.481 0 0 0 -2.348 2.675" fill="#e90d39"/><path d="m36.967 33.422c6.368-2.174 8.033-5.935 8.033-6.422v-10h-28v10c0 .534 2 5 10 7" fill="#e90d39"/><circle cx="32" cy="34" fill="#fdb25a" r="5"/><path d="m32 31a3 3 0 1 0 3 3 3 3 0 0 0 -3-3z" fill="#fdb25a"/><path d="m17.044 41c.2-.292 3.168-3.3 3.168-3.3a6 6 0 0 1 8.485 0l10.603 10.6a6 6 0 0 1 0 8.485l-2.475 2.475a6 6 0 0 1 -8.485 0l-7.729-7.75" fill="#e29344"/><path d="m46 36.415v4.585"/><path d="m45 17c0 5.61-4.49 10.32-10.57 11.63a16.024 16.024 0 0 1 -3.43.37c-7.73 0-14-5.37-14-12s6.27-12 14-12a15.538 15.538 0 0 1 8.22 2.29 11.544 11.544 0 0 1 5.78 9.71z" fill="#e5e6e7"/><path d="m11 28a9 9 0 0 0 -9 9v2s2.72 12.691 16.79 13.044a3.259 3.259 0 0 0 3.048-2l.073-.171a6 6 0 0 0 -2.492-7.546l-7.419-4.327z" fill="#e5e6e7"/><path d="m45 17c0 5.61-4.49 10.32-10.57 11.63a12.168 12.168 0 0 0 4.79-9.69v-11.65a11.544 11.544 0 0 1 5.78 9.71z" fill="#a6a8ab" opacity=".3"/><g fill="#1e0202"><path d="m46 45.833a1 1 0 0 0 -1 1v3.167a1 1 0 0 0 1 1h2a7.008 7.008 0 0 1 7 7v5a1 1 0 0 0 2 0v-5a9.01 9.01 0 0 0 -9-9h-1v-2.167a1 1 0 0 0 -1-1z"/><path d="m62 26a1 1 0 0 0 -1 1v4.009a9 9 0 0 1 -9 8.991h-5v-3.585a1 1 0 0 0 -2 0v6.585a1 1 0 0 0 2 0v-1h5.009a11 11 0 0 0 10.991-10.991v-4.009a1 1 0 0 0 -1-1z"/><path d="m62 7h-5a7.008 7.008 0 0 0 -7 7v8.5a3.5 3.5 0 0 1 -3.5 3.5h-.5v-9a11.335 11.335 0 0 0 -.559-3.471 12.479 12.479 0 0 0 -.625-13.091 1 1 0 0 0 -.816-.438 10.988 10.988 0 0 0 -6.621 2.21 10.413 10.413 0 0 0 -2.179 2.318 16.957 16.957 0 0 0 -8.4 0 10.393 10.393 0 0 0 -2.177-2.317 10.793 10.793 0 0 0 -6.623-2.211 1 1 0 0 0 -.817.438 12.478 12.478 0 0 0 -.625 13.091 11.336 11.336 0 0 0 -.558 3.471v10h-5a10.011 10.011 0 0 0 -10 10v.64a9.961 9.961 0 0 0 .7 3.673 18.467 18.467 0 0 0 9.16 9.956 9.008 9.008 0 0 0 -6.86 8.731v3a1 1 0 0 0 2 0v-3a7.008 7.008 0 0 1 7-7h5c.011 0 .021-.006.032-.007.247.014.479.044.733.05h.1a4.1 4.1 0 0 0 1.547-.317l7.224 7.243a7.008 7.008 0 0 0 9.9 0l2.474-2.469a7 7 0 0 0 0-9.9l-2.3-2.3a1 1 0 0 0 -1.414 1.414l2.3 2.3a5 5 0 0 1 0 7.071l-2.475 2.475a5.006 5.006 0 0 1 -7.07 0l-6.991-7.01a4.3 4.3 0 0 0 .7-1.11l.073-.171a6.961 6.961 0 0 0 .5-3.67l3.618-3.618a1 1 0 0 0 -1.414-1.414l-2.866 2.863a6.967 6.967 0 0 0 -2.748-2.966l-1.265-.738c.608-.635 1.459-1.509 2.26-2.323a4.991 4.991 0 0 1 6.751-.262 6.038 6.038 0 0 0 .632.573l4.783 4.786a1 1 0 0 0 1.416-1.416l-2.1-2.1a6 6 0 0 0 5.6-5.875c4.746-1.8 6.989-4.509 7.719-6.106h.781a5.5 5.5 0 0 0 5.5-5.503v-8.5a5.006 5.006 0 0 1 5-5h4v8h-4a1 1 0 0 0 0 2h4v3.917a1 1 0 1 0 2 0v-14.917a1 1 0 0 0 -1-1zm-23.4-3.21a8.664 8.664 0 0 1 4.85-1.777 10.532 10.532 0 0 1 1.538 5.03 10.418 10.418 0 0 1 -.639 4.062 14.366 14.366 0 0 0 -7.145-5.925 8.356 8.356 0 0 1 1.396-1.39zm-21.59 3.254a10.536 10.536 0 0 1 1.539-5.031 8.646 8.646 0 0 1 4.851 1.778 8.368 8.368 0 0 1 1.4 1.388 14.365 14.365 0 0 0 -7.152 5.921 10.421 10.421 0 0 1 -.638-4.056zm13.99-1.044c7.168 0 13 4.935 13 11s-5.832 11-13 11-13-4.935-13-11 5.832-11 13-11zm-3.176 23.7a5.993 5.993 0 0 0 -1.684 3.023c-5.87-1.772-7.907-4.972-8.14-5.8v-3.465a15.056 15.056 0 0 0 9.824 6.242zm-8.324 7.3c-.912.926-1.95 1.989-2.615 2.7l-4.385-2.564a1 1 0 0 0 -1 1.728l4.9 2.858c.023.021.036.048.062.067a.946.946 0 0 0 .264.123l2.194 1.28a5.008 5.008 0 0 1 2.077 6.289l-.073.171a2.273 2.273 0 0 1 -2.052 1.394h-.052c-9.786-.246-13.762-6.664-15.262-10.468a7.971 7.971 0 0 1 -.558-2.938v-.64a8.009 8.009 0 0 1 8-8h5.884c1.2 1.792 3.86 4.29 9.171 5.772.016.127.034.253.058.377a7 7 0 0 0 -6.613 1.851zm12.5 1a3.961 3.961 0 0 1 -2.433-.847l-.163-.164c-.123-.123-.253-.234-.383-.346a3.984 3.984 0 1 1 2.979 1.357zm5.682-5.913a6.016 6.016 0 0 0 -1.934-2.765 14.79 14.79 0 0 0 8.252-5.864v3.465c-.2.686-1.8 3.337-6.318 5.164z"/><path d="m30.485 56a1 1 0 0 0 .707-.293l4.243-4.242a1 1 0 0 0 -1.414-1.414l-4.243 4.242a1 1 0 0 0 .707 1.707z"/><path d="m31.192 45.808a1 1 0 0 0 -1.414 0l-4.243 4.243a1 1 0 1 0 1.414 1.414l4.243-4.243a1 1 0 0 0 0-1.414z"/><path d="m25 16h2a1 1 0 0 0 0-2h-2a1 1 0 0 0 0 2z"/><path d="m35 16h2a1 1 0 0 0 0-2h-2a1 1 0 0 0 0 2z"/><path d="m19 63v-4a1 1 0 0 0 -2 0v4a1 1 0 0 0 2 0z"/><path d="m45 63a1 1 0 0 0 2 0v-4a1 1 0 0 0 -2 0z"/><path d="m9.5 31h-1a1 1 0 0 0 0 2h1a1 1 0 0 0 0-2z"/><path d="m13.5 31h-1a1 1 0 0 0 0 2h1a1 1 0 0 0 0-2z"/></g></svg>